<?xml version="1.0" encoding="UTF-8"?>
<svg id="Layer_1" xmlns="http://www.w3.org/2000/svg" version="1.1" viewBox="0 0 64 75">
  <!-- Generator: Adobe Illustrator 30.1.0, SVG Export Plug-In . SVG Version: 2.1.1 Build 136)  -->
  <defs>
    <style>
      .st0 {
        fill: #fff;
      }
    </style>
  </defs>
  <path class="st0" d="M39.82,66.19H4.94V8.81h56.17v57.38h-1.24c-1.61-2.43-4.02-4.44-6.45-6.56l-13.37-11.67c-5.35,1.19-10.21.6-14.66-2.62-3.07-2.22-4.73-6.16-4.75-9.74-.11-13.29,12.15-8.95,8.41-17.12-3.8.99-6.92,2.84-9.73,5.79-5.31,5.59-5.52,15.87-.59,21.87,5.05,6.15,12.35,8.07,19.88,7.18l8.03,7.23c-6.49,3.16-5.2-4.16-10.94-4.04-8.61.18-16.25-3.39-21.36-10.46-4.33-5.99-4.36-15.02-.1-20.99s10.89-9.95,18.56-10.46l.11,22.58,22.52,19.83c.24-11.37,1.99-21.34-2.93-30.46-3.06-5.67-9.09-7.63-15.09-9.06l-.34-7.88c-9.03-.22-18.01,2.63-24.41,9.32-6.89,7.2-9.33,18.36-4.29,27.13,5.92,10.32,13.41,14.23,25.32,15.46,2.19.23,5.05,3,6.14,4.67Z"/>
  <path d="M59.86,66.19h-20.04c-1.09-1.67-3.95-4.44-6.14-4.67-11.91-1.23-19.4-5.14-25.32-15.46-5.03-8.77-2.59-19.93,4.29-27.13,6.41-6.7,15.38-9.54,24.41-9.32l.34,7.88c6,1.43,12.03,3.39,15.09,9.06,4.93,9.13,3.18,19.09,2.93,30.46l-22.52-19.83-.11-22.58c-7.68.51-14.1,4.22-18.56,10.46s-4.23,15,.1,20.99c5.11,7.07,12.75,10.65,21.36,10.46,5.73-.12,4.45,7.2,10.94,4.04l-8.03-7.23c-7.52.89-14.83-1.03-19.88-7.18-4.93-6-4.72-16.27.59-21.87,2.81-2.96,5.93-4.81,9.73-5.79,3.74,8.17-8.52,3.83-8.41,17.12.03,3.59,1.68,7.53,4.75,9.74,4.45,3.21,9.31,3.81,14.66,2.62l13.37,11.67c2.43,2.12,4.84,4.13,6.45,6.56ZM50.07,45.31c.37-4.23.77-7.81.13-11.41-1.13-6.34-6.66-10.76-12.83-11.35l-.16,11.69,12.86,11.07Z"/>
  <path class="st0" d="M50.07,45.31l-12.86-11.07.16-11.69c6.17.58,11.7,5.01,12.83,11.35.64,3.6.24,7.18-.13,11.41Z"/>
</svg>